<svg xmlns="http://www.w3.org/2000/svg" viewBox="0 0 720 520" font-family="system-ui, -apple-system, sans-serif">
  <defs>
    <linearGradient id="bg1" x1="0" y1="0" x2="1" y2="1">
      <stop offset="0%" stop-color="#fef3f2"/>
      <stop offset="100%" stop-color="#fde8e8"/>
    </linearGradient>
  </defs>
  
  <!-- Background -->
  <rect width="720" height="520" rx="16" fill="url(#bg1)" stroke="#fca5a5" stroke-width="2"/>
  
  <!-- Title -->
  <text x="360" y="38" text-anchor="middle" font-size="22" font-weight="700" fill="#991b1b">Osa úhlu – pojmy a značení</text>
  
  <!-- Rameno a: V(200,420) → (80,120), dir (-0.371, -0.929) -->
  <line x1="200" y1="420" x2="80" y2="120" stroke="#334155" stroke-width="3"/>
  <text x="63" y="115" font-size="18" font-weight="700" fill="#334155">a</text>
  
  <!-- Rameno b: V(200,420) → (620,220), dir (0.903, -0.430) -->
  <line x1="200" y1="420" x2="620" y2="220" stroke="#334155" stroke-width="3"/>
  <text x="632" y="218" font-size="18" font-weight="700" fill="#334155">b</text>
  
  <!-- Vrchol V -->
  <circle cx="200" cy="420" r="8" fill="#dc2626"/>
  <text x="178" y="448" font-size="20" font-weight="700" fill="#dc2626">V</text>
  
  <!-- Úhel α oblouk (r=60, od ramena a po rameno b) -->
  <path d="M 178,364 A 60,60 0 0,1 254,394" fill="none" stroke="#f59e0b" stroke-width="2.5"/>
  <text x="238" y="380" font-size="18" font-weight="700" fill="#f59e0b">α</text>
  
  <!-- Osa úhlu: bisector dir (0.364, -0.931), V→(302,159) -->
  <line x1="200" y1="420" x2="302" y2="159" stroke="#3b82f6" stroke-width="3.5"/>
  <text x="312" y="152" font-size="18" font-weight="700" fill="#3b82f6">osa o</text>
  
  <!-- Půlení úhlu α/2 + α/2 (r=45) -->
  <path d="M 183,378 A 45,45 0 0,1 216,378" fill="none" stroke="#3b82f6" stroke-width="2" stroke-dasharray="5,3"/>
  <text x="175" y="370" font-size="14" font-weight="600" fill="#3b82f6">α/2</text>
  <path d="M 216,378 A 45,45 0 0,1 241,401" fill="none" stroke="#3b82f6" stroke-width="2" stroke-dasharray="5,3"/>
  <text x="246" y="392" font-size="14" font-weight="600" fill="#3b82f6">α/2</text>
  
  <!-- Bod X na ose (dist 180 od V) = (266,252) -->
  <circle cx="266" cy="252" r="7" fill="#10b981"/>
  <text x="280" y="244" font-size="18" font-weight="700" fill="#10b981">X</text>
  
  <!-- Kolmice z X na rameno a → pata P(151,298) -->
  <line x1="266" y1="252" x2="151" y2="298" stroke="#10b981" stroke-width="2.5" stroke-dasharray="8,5"/>
  <circle cx="151" cy="298" r="6" fill="#10b981" opacity="0.7"/>
  <text x="132" y="294" font-size="15" font-weight="700" fill="#10b981">P</text>
  <!-- Značka kolmosti u P (podél ramena + podél kolmice) -->
  <path d="M 146,285 L 159,280 L 164,293" fill="none" stroke="#10b981" stroke-width="2"/>
  
  <!-- Kolmice z X na rameno b → pata Q(319,363) -->
  <line x1="266" y1="252" x2="319" y2="363" stroke="#10b981" stroke-width="2.5" stroke-dasharray="8,5"/>
  <circle cx="319" cy="363" r="6" fill="#10b981" opacity="0.7"/>
  <text x="330" y="375" font-size="15" font-weight="700" fill="#10b981">Q</text>
  <!-- Značka kolmosti u Q (podél ramena + podél kolmice) -->
  <path d="M 332,357 L 326,344 L 313,350" fill="none" stroke="#10b981" stroke-width="2"/>
  
  <!-- Vzdálenosti |XP| a |XQ| -->
  <text x="192" y="262" text-anchor="middle" font-size="15" font-weight="600" fill="#10b981">|XP|</text>
  <text x="308" y="298" text-anchor="middle" font-size="15" font-weight="600" fill="#10b981">|XQ|</text>
  
  <!-- Rovnost -->
  <rect x="350" y="220" width="185" height="34" rx="8" fill="#10b981" opacity="0.15"/>
  <text x="442" y="242" text-anchor="middle" font-size="18" font-weight="700" fill="#10b981">|XP| = |XQ|</text>
  
  <!-- Legend box -->
  <rect x="20" y="448" width="680" height="58" rx="10" fill="white" stroke="#fca5a5" stroke-width="1.5"/>
  <circle cx="50" cy="467" r="5" fill="#dc2626"/>
  <text x="62" y="472" font-size="13" fill="#334155"><tspan font-weight="600">Vrchol V</tspan> – bod, kde se ramena setkávají</text>
  <circle cx="50" cy="490" r="5" fill="#3b82f6"/>
  <text x="62" y="495" font-size="13" fill="#334155"><tspan font-weight="600">Osa o</tspan> – polopřímka půlící úhel α</text>
  <circle cx="350" cy="467" r="5" fill="#10b981"/>
  <text x="362" y="472" font-size="13" fill="#334155"><tspan font-weight="600">Bod X na ose</tspan> – |XP| = |XQ| (kolmé vzdálenosti)</text>
  <circle cx="350" cy="490" r="5" fill="#f59e0b"/>
  <text x="362" y="495" font-size="13" fill="#334155"><tspan font-weight="600">α</tspan> – úhel mezi rameny a, b</text>
</svg>
